# xmcd
#
# Track frame offsets:
#	150
#	14724
#	25912
#	37892
#
# Disc length: 664 seconds
#
# Revision: 1
# Processed by: cddbd v1.5.2PL0 Copyright (c) Steve Scherf et al.
# Submitted via: audiograbber 1.83.01
#
DISCID=28029604
DTITLE=Michel Polnareff - La poupée qui fait non
DYEAR=1966
DGENRE=Variété Française
TTITLE0=La poupée qui fait non
TTITLE1=Chere Véronique
TTITLE2=Beatnik
TTITLE3=Ballade pour toi
EXTD=
EXTT0=
EXTT1=
EXTT2=
EXTT3=
PLAYORDER=
